# xmcd
#
# Track frame offsets:
#	150
#	12729
#	23903
#	34881
#	46726
#	59025
#	69123
#	79150
#	89377
#	99761
#	111544
#	120522
#	132498
#	143353
#	154294
#	164201
#	175289
#	185370
#	197781
#	207661
#	217621
#	228529
#	241334
#	251691
#	261479
#
# Disc length: 3614 seconds
#
# Revision: 1
# Processed by: cddbd v1.5.2PL0 Copyright (c) Steve Scherf et al.
# Submitted via: audiograbber 1.83.01
#
DISCID=6e0e1c19
DTITLE=George Jones - Big Box Of George Jones [CD5]
DYEAR=2015
DGENRE=Country
TTITLE0=There'll Be No Teardrops Tonight
TTITLE1=A Wandering Soul
TTITLE2=Steel Guitar Rag
TTITLE3=Let Him Know
TTITLE4=Root Beer
TTITLE5=I'm With The Wrong One
TTITLE6=Settin' The Woods On Fire
TTITLE7=No Use To Cry
TTITLE8=Your Heart Turneed Left (And I Was On The Right)
TTITLE9=She Thinks I Still Care
TTITLE10=Take Me Back To Tulsa
TTITLE11=Money To Burn
TTITLE12=Silver Dew On The Bluegrass Tonight
TTITLE13=I Walk The Line
TTITLE14=I'll Be there (If You Ever Want Me)
TTITLE15=I Could Never Be Ashamed Of You
TTITLE16=It's Been So Long Darling
TTITLE17=Waltz Of The Angels
TTITLE18=Too Much Water
TTITLE19=Blackboard Of My Heart
TTITLE20=Take These Chains From My Heart
TTITLE21=Baby (Youve Got What It Takes)
TTITLE22=Uh Uh No
TTITLE23=Yes I Know Why
TTITLE24=Looking Back To See
EXTD=
EXTT0=
EXTT1=
EXTT2=
EXTT3=
EXTT4=
EXTT5=
EXTT6=
EXTT7=
EXTT8=
EXTT9=
EXTT10=
EXTT11=
EXTT12=
EXTT13=
EXTT14=
EXTT15=
EXTT16=
EXTT17=
EXTT18=
EXTT19=
EXTT20=
EXTT21=
EXTT22=
EXTT23=
EXTT24=
PLAYORDER=
